# xmcd
# 
# Track frame offsets:
#     150
#     18438
#     38160
#     58069
#     71955
#     93257
#     114078
#     140251
#     156498
#     174031
#     195746
#     212187
# 
# Disc length: 3080
# 
# Revision: 3
# Processed by: cddbd v1.5.2PL0 Copyright (c) Steve Scherf et al.
# Submitted via: fre:ac v1.0.31
# 
DISCID=a30c060c
DTITLE=Joe Louis Walker - Hornet's Nest
DYEAR=2014
DGENRE=Blues
TTITLE0=Hornet's Nest
TTITLE1=All I Wanted To Do
TTITLE2=As The Sun Goes Down
TTITLE3=Stick A Fork In Me
TTITLE4=Don't Let Go
TTITLE5=Love Enough
TTITLE6=Ramblin' Soul
TTITLE7=Ride On, Baby
TTITLE8=Soul City
TTITLE9=I'm Gonna Walk Outside
TTITLE10=Not In Kansas Anymore
TTITLE11=Keep The Faith
EXTD=
EXTT0=
EXTT1=
EXTT2=
EXTT3=
EXTT4=
EXTT5=
EXTT6=
EXTT7=
EXTT8=
EXTT9=
EXTT10=
EXTT11=
PLAYORDER=
